<?xml version="1.0" encoding="UTF-8" standalone="no"?>
<!-- Created with Inkscape (http://www.inkscape.org/) -->

<svg
   width="45.037529mm"
   height="41.536549mm"
   viewBox="0 0 45.037529 41.536549"
   version="1.1"
   id="svg1"
   inkscape:version="1.3.2 (091e20e, 2023-11-25, custom)"
   sodipodi:docname="logo.svg"
   xmlns:inkscape="http://www.inkscape.org/namespaces/inkscape"
   xmlns:sodipodi="http://sodipodi.sourceforge.net/DTD/sodipodi-0.dtd"
   xmlns="http://www.w3.org/2000/svg"
   xmlns:svg="http://www.w3.org/2000/svg">
  <sodipodi:namedview
     id="namedview1"
     pagecolor="#ffffff"
     bordercolor="#cccccc"
     borderopacity="1"
     inkscape:showpageshadow="0"
     inkscape:pageopacity="1"
     inkscape:pagecheckerboard="0"
     inkscape:deskcolor="#d1d1d1"
     inkscape:document-units="mm"
     inkscape:zoom="0.90688833"
     inkscape:cx="272.35988"
     inkscape:cy="506.6776"
     inkscape:window-width="1366"
     inkscape:window-height="705"
     inkscape:window-x="-8"
     inkscape:window-y="-8"
     inkscape:window-maximized="1"
     inkscape:current-layer="layer1" />
  <defs
     id="defs1" />
  <g
     inkscape:label="Capa 1"
     inkscape:groupmode="layer"
     id="layer1"
     transform="translate(-126.18671,-147.7165)">
    <ellipse
       style="fill:#f9f9f9;fill-opacity:1;stroke:#f9f9f9;stroke-width:0.305084;stroke-opacity:1"
       id="ellipse3"
       cx="148.70547"
       cy="168.48477"
       rx="22.36622"
       ry="20.615728" />
    <path
       style="fill:#f2421b;fill-opacity:1;stroke-width:0.0286028"
       d="m 148.02801,181.78517 c -1.30097,-0.12726 -2.45739,-0.69277 -3.13352,-1.53235 -0.10469,-0.13001 -0.20043,-0.24018 -0.21274,-0.24484 -0.0123,-0.005 -0.10682,0.0506 -0.21001,0.1227 -0.74065,0.51775 -1.97312,0.77843 -2.97141,0.62849 -0.54183,-0.0814 -0.85198,-0.17992 -1.30948,-0.41606 -0.62456,-0.32237 -1.09438,-0.78349 -1.47219,-1.44491 -0.14437,-0.25275 -0.15076,-0.28222 -0.0795,-0.36685 0.0496,-0.059 0.0495,-0.059 -0.0117,-0.007 -0.0593,0.0501 -0.0629,0.0501 -0.0905,8.5e-4 -0.0274,-0.0489 -0.0412,-0.0482 -0.29577,0.0155 -0.32087,0.0803 -0.88556,0.1109 -1.18453,0.0642 -1.41497,-0.2209 -2.60299,-1.3228 -2.91858,-2.70698 -0.0379,-0.16601 -0.0524,-0.3482 -0.0531,-0.66371 l -8.6e-4,-0.43488 -0.168,-0.0613 c -0.61522,-0.22461 -1.2129,-0.83257 -1.50356,-1.52943 -0.10206,-0.2447 -0.20192,-0.71774 -0.20192,-0.9565 0,-0.20965 0.0451,-0.52723 0.10573,-0.74466 0.0563,-0.20199 0.26165,-0.60092 0.40882,-0.79431 0.0631,-0.0829 0.11471,-0.162 0.11471,-0.17577 0,-0.0138 -0.0373,-0.11325 -0.0828,-0.22109 -0.26223,-0.62083 -0.25211,-1.39223 0.0269,-2.04879 0.27982,-0.65849 0.84911,-1.22433 1.43546,-1.42676 l 0.19252,-0.0665 -0.0209,-0.1576 c -0.0399,-0.30068 -0.0213,-1.05659 0.0323,-1.31243 0.15516,-0.74137 0.45193,-1.32409 0.90465,-1.77636 0.47173,-0.47126 0.99696,-0.71573 1.75231,-0.81562 l 0.13586,-0.018 v -0.38122 c 0,-0.64521 0.13579,-1.17813 0.42306,-1.66037 0.29958,-0.5029 0.7732,-0.95292 1.2645,-1.20148 0.18197,-0.0921 0.54655,-0.22079 0.5671,-0.20024 0.008,0.008 0.0285,0.002 0.0462,-0.0127 0.0543,-0.0451 0.38667,-0.0867 0.69334,-0.087 0.27739,-2.2e-4 0.29213,-0.003 0.3098,-0.0646 0.0731,-0.25372 0.27191,-0.65361 0.47281,-0.95104 0.15351,-0.22728 0.65011,-0.70922 0.88543,-0.8593 0.49882,-0.31814 0.92622,-0.44982 1.45874,-0.44944 0.36148,2.1e-4 0.63764,0.0496 0.91995,0.16429 0.0979,0.0398 0.1861,0.0625 0.19608,0.0506 0.01,-0.0119 0.0643,-0.0925 0.12062,-0.179 0.26717,-0.4101 0.67507,-0.78122 1.09448,-0.9958 0.22994,-0.11764 0.47057,-0.20974 0.50018,-0.19144 0.0132,0.008 0.0285,0.001 0.034,-0.0148 0.0226,-0.0677 0.57131,-0.15157 0.99609,-0.15225 0.65549,-0.001 1.22839,0.15393 1.67416,0.45285 l 0.17602,0.11803 0.11176,-0.0976 c 0.54479,-0.47552 1.46262,-0.80613 2.23902,-0.8065 0.22378,-1.1e-4 0.23694,0.003 0.20071,0.0499 -0.0313,0.0404 -0.0264,0.0395 0.0254,-0.005 0.0767,-0.0655 0.27719,-0.066 0.68301,-0.002 1.06333,0.16827 2.01921,0.80777 2.44824,1.6379 0.0764,0.14779 0.10315,0.17709 0.15016,0.1644 0.44431,-0.12 1.18388,-0.20087 1.58745,-0.17358 0.99113,0.067 1.6881,0.3525 2.27879,0.93338 0.27765,0.27305 0.2899,0.29655 0.20495,0.39314 l -0.0668,0.076 0.0756,-0.0664 0.0756,-0.0664 0.0429,0.0612 c 0.0382,0.0546 0.0549,0.0581 0.15324,0.0323 0.86846,-0.22772 1.88985,0.0824 2.59548,0.78801 0.58792,0.58793 0.89447,1.36211 0.83674,2.11319 l -0.0182,0.23635 0.1914,0.10521 c 0.28526,0.1568 0.51492,0.32936 0.73406,0.55156 0.53847,0.54599 0.79884,1.17351 0.79292,1.91098 -0.002,0.25445 -0.0722,0.72217 -0.13126,0.87486 -0.0134,0.0348 0.0471,0.1136 0.21968,0.28624 0.34117,0.34124 0.49136,0.61813 0.64672,1.19229 0.0685,0.2531 0.0745,0.32078 0.074,0.83323 -4.3e-4,0.5309 -0.005,0.57381 -0.0887,0.89111 -0.0934,0.35304 -0.25491,0.73029 -0.41059,0.95872 -0.11923,0.17496 -0.43945,0.50984 -0.55695,0.58246 -0.0883,0.0546 -0.09,0.06 -0.10699,0.33468 -0.0919,1.48518 -0.86737,2.77104 -2.06511,3.42418 -0.1517,0.0827 -0.63792,0.28203 -0.75797,0.3107 -0.0712,0.017 -0.0715,0.0186 -0.0728,0.35441 -0.002,0.38971 -0.0444,0.66531 -0.15783,1.01392 -0.45283,1.39117 -1.77751,2.39688 -3.1586,2.39804 l -0.19998,2.2e-4 -0.6295,-0.62211 -0.6295,-0.62211 0.6139,0.6213 c 0.6828,0.69103 0.66162,0.64326 0.24992,0.56365 -0.21378,-0.0413 -0.21174,-0.0425 -0.23348,0.13793 -0.0234,0.19404 -0.15443,0.60231 -0.26154,0.81481 -0.44148,0.87584 -1.39267,1.55561 -2.55691,1.82732 -0.31861,0.0744 -1.07032,0.10383 -1.40397,0.0551 -0.27143,-0.0397 -0.63476,-0.14752 -0.83083,-0.2466 l -0.13249,-0.0669 -0.13621,0.20614 c -0.0749,0.11338 -0.21459,0.29624 -0.31037,0.40636 -0.18187,0.20909 -0.55546,0.56059 -0.61797,0.58142 -0.0199,0.007 -0.059,0.0349 -0.0869,0.0627 -0.0793,0.0793 -0.44863,0.28694 -0.70022,0.39369 -0.55754,0.23656 -1.34299,0.35938 -1.93069,0.30189 z m -1.31208,-0.68898 c 0.0356,-0.0454 0.0346,-0.0464 -0.0108,-0.0108 -0.0275,0.0216 -0.0501,0.0441 -0.0501,0.0501 0,0.0235 0.0235,0.008 0.0608,-0.0393 z m 0.22882,-0.22882 c 0.0356,-0.0454 0.0346,-0.0464 -0.0108,-0.0108 -0.0476,0.0374 -0.0628,0.0608 -0.0392,0.0608 0.006,0 0.0285,-0.0225 0.05,-0.05 z m 0.22882,-0.22882 c 0.0356,-0.0454 0.0346,-0.0464 -0.0108,-0.0108 -0.0477,0.0374 -0.0628,0.0609 -0.0393,0.0609 0.006,0 0.0285,-0.0225 0.05,-0.0501 z m 1.77032,-0.075 c 0.32013,-0.0653 0.75936,-0.23044 0.86464,-0.32509 0.0275,-0.0247 0.0503,-0.0333 0.0505,-0.0191 2.2e-4,0.0142 0.01,0.013 0.0215,-0.003 0.0116,-0.0158 0.095,-0.0849 0.18539,-0.15357 0.36576,-0.27792 0.63787,-0.62886 0.89316,-1.15191 0.18163,-0.37211 0.29008,-0.48865 0.50208,-0.53951 0.2266,-0.0544 0.39302,0.002 0.60221,0.20263 0.16606,0.15955 0.28933,0.23393 0.53396,0.32217 0.68715,0.24787 1.69503,0.0754 2.4095,-0.41229 0.22757,-0.15533 0.53947,-0.49235 0.65173,-0.70419 0.11718,-0.22113 0.20673,-0.56499 0.20647,-0.7928 -1.1e-4,-0.0958 -0.0263,-0.28291 -0.0581,-0.41578 -0.0388,-0.1617 -0.0518,-0.28238 -0.0394,-0.36493 0.0272,-0.18137 0.15725,-0.3428 0.34568,-0.42907 0.22287,-0.10203 0.33525,-0.0828 0.6844,0.11727 0.4104,0.23512 0.60423,0.28941 1.02694,0.28758 0.29308,-0.001 0.37667,-0.0126 0.57206,-0.0778 0.70938,-0.23649 1.29639,-0.86338 1.506,-1.60831 0.0891,-0.3167 0.0885,-0.76335 -0.002,-1.09481 -0.0719,-0.26491 -0.0648,-0.35339 0.0436,-0.54194 0.0962,-0.16731 0.25477,-0.25134 0.5784,-0.30651 1.21365,-0.20692 2.0925,-1.14441 2.30871,-2.46279 0.0562,-0.34274 0.0428,-1.00252 -0.0268,-1.32018 -0.20929,-0.95514 -0.79695,-1.68854 -1.56652,-1.95502 l -0.22021,-0.0763 0.0621,-0.0677 0.0621,-0.0677 -0.0755,0.0657 c -0.0705,0.0613 -0.0864,0.0636 -0.24123,0.035 -0.24237,-0.0448 -0.7349,-0.0374 -1.044,0.0157 -0.30752,0.0528 -0.75008,0.18995 -1.06488,0.32999 l -0.21505,0.0957 -0.0769,0.22882 c -0.28164,0.83792 -0.85953,1.58581 -1.54446,1.99881 -0.14445,0.0871 -0.19747,0.10336 -0.33728,0.10342 -0.19649,9e-5 -0.28867,-0.0422 -0.42786,-0.19627 -0.16568,-0.18338 -0.20561,-0.41052 -0.10941,-0.62235 0.0534,-0.11754 0.0873,-0.14944 0.42219,-0.39683 0.49411,-0.36501 0.85762,-0.97094 0.96872,-1.61478 0.0348,-0.20189 0.044,-0.40486 0.0368,-0.81622 l -0.01,-0.54749 0.0827,-0.10885 c 0.18454,-0.24276 0.53034,-0.3067 0.80097,-0.14811 0.16767,0.0983 0.23251,0.22425 0.27496,0.5343 0.0182,0.13263 0.0376,0.24571 0.0432,0.2513 0.006,0.006 0.13003,-0.0291 0.27654,-0.077 2.14304,-0.70119 4.03903,0.11727 4.81796,2.0798 0.11812,0.29761 0.1213,0.30216 0.15217,0.21814 0.0174,-0.0472 0.0439,-0.11798 0.059,-0.15731 0.11463,-0.29819 0.1469,-0.90079 0.0686,-1.28118 -0.0988,-0.47986 -0.25531,-0.69574 -0.59529,-0.82094 -0.28433,-0.1047 -0.39966,-0.18808 -0.47478,-0.34328 -0.091,-0.18803 -0.0706,-0.36664 0.0771,-0.6736 0.26126,-0.54296 0.27634,-1.06885 0.0442,-1.54325 -0.0478,-0.0978 -0.16929,-0.25057 -0.32088,-0.40369 -0.19905,-0.20106 -0.28862,-0.2679 -0.48703,-0.36341 -0.30788,-0.14821 -0.51961,-0.20444 -0.84378,-0.22408 -0.48664,-0.0295 -0.85389,0.10352 -1.12467,0.40733 -0.17067,0.19149 -0.31456,0.26922 -0.49836,0.26922 -0.24848,0 -0.44236,-0.11818 -0.53963,-0.32893 -0.18525,-0.40139 0.17902,-0.93867 0.85488,-1.26091 0.32756,-0.15618 0.6828,-0.24149 1.0861,-0.26085 l 0.35039,-0.0168 v -0.13284 c 0,-0.27807 -0.15237,-0.67157 -0.35305,-0.91177 -0.17232,-0.20626 -0.39505,-0.37691 -0.66235,-0.50749 -0.47084,-0.23001 -0.8684,-0.23811 -1.16676,-0.0238 -0.28017,0.20129 -0.44874,0.22897 -0.69527,0.11418 -0.16938,-0.0789 -0.23256,-0.15832 -0.33975,-0.42718 l -0.0779,-0.19533 0.0672,-0.0764 0.0672,-0.0764 -0.0826,0.0715 c -0.058,0.0502 -0.0865,0.0606 -0.0956,0.035 -0.0263,-0.0738 -0.23528,-0.31606 -0.35571,-0.41232 -0.18834,-0.15054 -0.36488,-0.24269 -0.64445,-0.33635 -0.88984,-0.29812 -2.20522,-0.0956 -3.05608,0.47055 -0.32951,0.21925 -0.49778,0.43939 -0.64497,0.8438 -0.0569,0.15626 -0.0678,0.24067 -0.0683,0.52915 -6.8e-4,0.38024 0.0363,0.53277 0.18688,0.77015 0.21467,0.3385 0.17443,0.61594 -0.1242,0.85627 -0.0899,0.0723 -0.13982,0.0892 -0.29347,0.099 -0.22599,0.0144 -0.32223,-0.0219 -0.45873,-0.17298 -0.1449,-0.16039 -0.34244,-0.58612 -0.42672,-0.91965 -0.11592,-0.45875 -0.0943,-1.01012 0.0592,-1.50958 0.0312,-0.10164 -0.46524,-0.11791 -0.82077,-0.0269 -0.87962,0.22514 -1.83458,1.16086 -1.9652,1.9256 -0.0169,0.0987 -0.038,0.2262 -0.0469,0.28334 -0.0243,0.1552 -0.16799,0.33445 -0.323,0.40302 -0.12749,0.0564 -0.14838,0.0572 -0.55594,0.0217 -0.47456,-0.0413 -1.09102,-0.0234 -1.40994,0.0409 -0.92459,0.18655 -1.72283,0.67839 -2.163,1.33275 -0.1301,0.1934 -0.30487,0.58763 -0.27413,0.61836 0.01,0.01 0.11795,-0.009 0.24058,-0.0416 0.51793,-0.13746 0.9191,-0.18085 1.08633,-0.11749 0.41557,0.15745 0.45253,0.84233 0.0565,1.04712 -0.0488,0.0252 -0.23901,0.0753 -0.4227,0.11118 -1.55058,0.30324 -2.72681,0.99571 -3.53173,2.07921 -0.59541,0.80149 -0.85191,1.8276 -0.64415,2.57687 0.2934,1.05807 1.74175,1.53211 3.49278,1.14317 0.92991,-0.20655 1.7372,-0.603 2.22874,-1.09451 0.27129,-0.27128 0.38227,-0.45907 0.4691,-0.79376 0.0801,-0.30863 0.1224,-0.38165 0.28272,-0.48765 0.10181,-0.0673 0.14828,-0.0786 0.32319,-0.0786 0.1734,0 0.22171,0.0115 0.31946,0.0762 0.15968,0.10569 0.23826,0.28123 0.23783,0.53128 -8.6e-4,0.46972 -0.26556,1.00143 -0.75433,1.51504 -0.21444,0.22534 -0.67599,0.61185 -0.77297,0.64729 -0.0172,0.006 0.0852,0.13217 0.22748,0.27975 0.14229,0.14759 0.29801,0.31983 0.34604,0.38275 0.30521,0.39982 0.4478,0.79855 0.38267,1.07004 -0.0455,0.18946 -0.19137,0.35606 -0.36314,0.41458 -0.18252,0.0622 -0.28389,0.0571 -0.456,-0.0231 -0.17188,-0.08 -0.2814,-0.21159 -0.33976,-0.40809 -0.0807,-0.27176 -0.4681,-0.73554 -0.83556,-1.00031 l -0.17754,-0.12793 -0.22577,0.0713 c -1.21809,0.38481 -2.56172,0.4292 -3.5488,0.11726 -0.31745,-0.10032 -0.61667,-0.23869 -0.83125,-0.38441 -0.21197,-0.14395 -0.24849,-0.13754 -0.40226,0.0706 -0.35842,0.48517 -0.56499,1.11009 -0.53785,1.62714 0.0146,0.2775 0.10174,0.48832 0.35241,0.85222 0.0875,0.12698 0.15536,0.23329 0.15087,0.23625 -0.004,0.003 -0.17408,0.10631 -0.37687,0.22967 -0.5777,0.35142 -0.86243,0.60229 -1.12968,0.99533 -0.50841,0.74771 -0.49529,1.85593 0.0354,2.99532 0.3432,0.73678 0.99589,1.21741 1.84631,1.35957 0.35157,0.0588 0.9182,0.0462 1.2613,-0.0279 0.5546,-0.11987 1.06059,-0.36202 1.34642,-0.64432 0.19858,-0.19612 0.26484,-0.32463 0.2979,-0.57768 0.0376,-0.28802 0.27474,-0.48146 0.59019,-0.48146 0.43916,0 0.64758,0.35286 0.52512,0.88904 l -0.0515,0.22556 0.10435,0.21112 c 0.30653,0.62023 1.13213,1.17807 2.014,1.36083 0.35733,0.074 0.39638,0.0786 0.72247,0.0833 0.18644,0.003 0.37516,-0.0171 0.60125,-0.0632 z m -0.98739,-1.80539 c -0.14436,-0.0506 -0.31873,-0.24259 -0.36066,-0.39706 -0.0526,-0.19368 -0.0161,-0.59927 0.0759,-0.84354 0.20129,-0.53463 0.69255,-1.05662 1.26667,-1.34591 0.27121,-0.13666 0.72971,-0.28118 1.05602,-0.33287 0.21029,-0.0333 0.43095,-0.0434 0.80158,-0.0365 0.49953,0.009 0.5141,0.0113 0.62732,0.0863 0.27622,0.18296 0.32078,0.65345 0.0857,0.90521 -0.1291,0.13826 -0.2077,0.15806 -0.65748,0.16567 -0.64688,0.0109 -1.03422,0.0861 -1.40457,0.27243 -0.23074,0.11611 -0.34946,0.21162 -0.47348,0.38095 -0.13098,0.17883 -0.19158,0.32981 -0.23073,0.57491 -0.0515,0.32229 -0.1807,0.49842 -0.42586,0.5805 -0.12575,0.0421 -0.21904,0.0395 -0.36041,-0.0101 z m 3.10705,-2.00962 c 0.0356,-0.0454 0.0346,-0.0464 -0.0108,-0.0108 -0.0275,0.0216 -0.0501,0.0441 -0.0501,0.0501 0,0.0235 0.0235,0.008 0.0608,-0.0393 z m 0.22882,-0.22882 c 0.0356,-0.0454 0.0346,-0.0464 -0.0108,-0.0108 -0.0275,0.0216 -0.05,0.0441 -0.05,0.0501 0,0.0235 0.0235,0.008 0.0609,-0.0393 z m 0.22882,-0.22882 c 0.0356,-0.0454 0.0346,-0.0464 -0.0108,-0.0108 -0.0275,0.0216 -0.05,0.0441 -0.05,0.05 0,0.0235 0.0235,0.008 0.0608,-0.0393 z m -9.24234,0.99056 c -0.13236,-0.0525 -0.25756,-0.20292 -0.30634,-0.36803 -0.0649,-0.21978 -0.0631,-0.90556 0.003,-1.21016 0.1248,-0.57321 0.45973,-1.18377 0.85159,-1.55238 0.12864,-0.12101 0.14397,-0.1324 0.45766,-0.34033 0.50873,-0.33721 1.18058,-0.49888 1.83757,-0.4422 0.53635,0.0463 0.81835,0.12987 1.45085,0.4301 0.50814,0.24121 0.86427,0.34008 1.22488,0.34008 0.30093,0 0.61993,-0.0757 0.86797,-0.2059 0.21629,-0.11356 0.52042,-0.41008 0.64391,-0.62779 0.17601,-0.31031 0.24428,-0.74636 0.17528,-1.11958 -0.0387,-0.20955 6.7e-4,-0.35963 0.13286,-0.50594 0.17483,-0.19351 0.44755,-0.24862 0.69773,-0.141 0.25008,0.10758 0.33646,0.30555 0.36329,0.83262 0.0554,1.08845 -0.47719,2.03898 -1.45165,2.59077 -0.21729,0.12304 -0.70566,0.28118 -0.99775,0.32308 -0.28949,0.0415 -0.8483,0.0189 -1.1172,-0.0452 -0.34135,-0.0814 -0.63658,-0.18853 -0.98482,-0.35744 -0.6295,-0.30534 -1.0387,-0.39921 -1.49375,-0.34266 -0.41868,0.052 -0.72582,0.20044 -1.02367,0.49466 -0.15426,0.15239 -0.23464,0.26105 -0.31074,0.42008 -0.17261,0.36073 -0.20021,0.5008 -0.20311,1.0309 -0.003,0.50531 -0.0153,0.5557 -0.17205,0.69342 -0.14369,0.12623 -0.45985,0.1766 -0.64573,0.10287 z m 10.70453,-1.11517 c -0.51703,-0.25591 -0.8837,-1.35348 -0.78584,-2.35224 0.0785,-0.80102 0.36952,-1.45555 0.88897,-1.99926 0.27495,-0.28778 0.52038,-0.4723 0.86228,-0.64828 0.52158,-0.26847 1.06854,-0.42111 1.80197,-0.50285 1.71311,-0.19095 2.75928,-0.43928 3.26391,-0.77475 0.27204,-0.18085 0.4176,-0.35998 0.64255,-0.79071 0.24198,-0.46334 0.31341,-0.52289 0.62721,-0.52289 0.17514,0 0.2213,0.0113 0.32351,0.0789 0.17783,0.11769 0.2662,0.26845 0.27073,0.46185 0.003,0.13951 -0.015,0.19676 -0.1452,0.45414 -0.39012,0.77142 -0.764,1.16156 -1.4288,1.49096 -0.44411,0.22004 -1.18742,0.43513 -1.88429,0.54524 -0.17505,0.0277 -0.33412,0.0601 -0.3535,0.0721 -0.0194,0.012 -0.0419,0.0813 -0.0501,0.15401 -0.0414,0.36727 0.18791,0.64538 0.76589,0.9289 0.30508,0.14965 0.36903,0.19292 0.43458,0.29401 0.19887,0.30671 0.0824,0.70743 -0.24951,0.8582 -0.16379,0.0744 -0.30299,0.0657 -0.55323,-0.0345 -0.93453,-0.37419 -1.50791,-1.04445 -1.5691,-1.83419 l -0.0171,-0.22013 -0.0888,0.0158 c -0.78804,0.13989 -1.26041,0.32228 -1.6351,0.63134 -0.36133,0.29804 -0.56117,0.62044 -0.68732,1.10888 -0.0647,0.25054 -0.0719,0.32329 -0.0576,0.58635 0.0208,0.38322 0.12184,0.7609 0.28918,1.0807 0.1057,0.20202 0.12851,0.27278 0.12851,0.39877 0,0.42835 -0.42121,0.70411 -0.79379,0.51968 z m 3.28588,-4.68065 c 0.0356,-0.0454 0.0346,-0.0464 -0.0108,-0.0108 -0.0275,0.0216 -0.0501,0.0441 -0.0501,0.0501 0,0.0235 0.0235,0.008 0.0609,-0.0393 z m 0.22882,-0.22883 c 0.0356,-0.0454 0.0346,-0.0464 -0.0108,-0.0108 -0.0275,0.0216 -0.0501,0.0441 -0.0501,0.0501 0,0.0235 0.0235,0.008 0.0609,-0.0393 z m 0.22883,-0.22882 c 0.0356,-0.0454 0.0346,-0.0464 -0.0108,-0.0108 -0.0275,0.0216 -0.0501,0.0441 -0.0501,0.0501 0,0.0235 0.0235,0.008 0.0609,-0.0393 z m 0.22882,-0.22882 c 0.0356,-0.0454 0.0346,-0.0464 -0.0108,-0.0108 -0.0275,0.0216 -0.0501,0.0441 -0.0501,0.0501 0,0.0235 0.0235,0.008 0.0609,-0.0393 z m 0.25377,-0.25027 c 0.0369,-0.0393 0.0607,-0.0715 0.0529,-0.0715 -0.008,0 -0.0445,0.0322 -0.0815,0.0715 -0.0369,0.0393 -0.0607,0.0715 -0.0529,0.0715 0.008,0 0.0445,-0.0322 0.0815,-0.0715 z m 3.20351,-0.71157 c 0,-0.006 -0.0225,-0.0285 -0.0501,-0.0501 -0.0454,-0.0356 -0.0464,-0.0346 -0.0108,0.0108 0.0374,0.0476 0.0609,0.0628 0.0609,0.0393 z m -0.22882,-0.22882 c 0,-0.006 -0.0225,-0.0285 -0.0501,-0.05 -0.0454,-0.0356 -0.0464,-0.0346 -0.0108,0.0108 0.0374,0.0477 0.0609,0.0628 0.0609,0.0393 z m -0.22882,-0.22883 c 0,-0.006 -0.0225,-0.0285 -0.05,-0.0501 -0.0454,-0.0356 -0.0464,-0.0346 -0.0108,0.0108 0.0374,0.0476 0.0609,0.0628 0.0609,0.0393 z m -0.17162,-0.17068 c 0,-0.005 -0.029,-0.0344 -0.0644,-0.0644 l -0.0644,-0.0545 0.0545,0.0644 c 0.0512,0.0605 0.0742,0.0774 0.0742,0.0545 z m -8.59971,1.01218 c -0.1353,-0.0322 -0.26515,-0.11725 -0.36185,-0.23691 -0.13445,-0.16635 -0.13671,-0.33621 -0.009,-0.70918 0.24219,-0.70974 0.27037,-1.19993 0.0991,-1.72464 -0.23882,-0.73175 -0.97222,-1.23294 -1.95809,-1.33811 -0.56076,-0.0598 -1.12679,0.0457 -1.72332,0.32132 -0.13408,0.0619 -0.26114,0.10596 -0.28237,0.0978 -0.0212,-0.008 -0.0318,-0.004 -0.0234,0.01 0.008,0.0135 -0.14922,0.12349 -0.35011,0.24447 -0.70391,0.42394 -1.49076,1.06286 -1.81178,1.47114 -0.19569,0.24888 -0.34489,0.34723 -0.52677,0.34723 -0.23232,0 -0.50646,-0.17925 -0.58247,-0.38084 -0.10974,-0.29108 0.042,-0.58896 0.55418,-1.08816 1.15326,-1.12395 2.65184,-1.98126 3.79169,-2.16916 0.31204,-0.0514 1.07369,-0.0437 1.39111,0.0141 0.46976,0.0856 0.9719,0.27118 1.31093,0.4846 0.25685,0.16168 0.47437,0.33942 0.45459,0.37144 -0.0107,0.0173 -0.006,0.0229 0.0106,0.0126 0.0413,-0.0255 0.35572,0.29917 0.50778,0.52432 0.50706,0.75078 0.63971,1.67861 0.38741,2.70975 -0.17093,0.69859 -0.32036,0.95973 -0.59237,1.03526 -0.12202,0.0339 -0.1554,0.0343 -0.28547,0.003 z m -0.66394,-3.62659 c 0.0356,-0.0454 0.0346,-0.0464 -0.0108,-0.0108 -0.0275,0.0216 -0.0501,0.0441 -0.0501,0.0501 0,0.0235 0.0235,0.008 0.0608,-0.0393 z m 0.22882,-0.22882 c 0.0356,-0.0454 0.0346,-0.0464 -0.0108,-0.0108 -0.0275,0.0216 -0.0501,0.0441 -0.0501,0.05 0,0.0235 0.0235,0.008 0.0609,-0.0393 z m 0.22882,-0.22882 c 0.0356,-0.0454 0.0346,-0.0464 -0.0108,-0.0108 -0.0275,0.0216 -0.0501,0.0441 -0.0501,0.0501 0,0.0235 0.0235,0.008 0.0609,-0.0393 z m 3.11769,1.35313 c -0.14412,-0.0468 -0.26754,-0.1547 -0.33182,-0.29015 -0.0381,-0.0803 -0.042,-0.17721 -0.0258,-0.64663 0.0213,-0.61974 -0.008,-0.92163 -0.12467,-1.29589 -0.24982,-0.79954 -0.78517,-1.30882 -1.62843,-1.54915 -0.2005,-0.0571 -0.34116,-0.0751 -0.68167,-0.0868 -0.23597,-0.008 -0.52092,-0.002 -0.63322,0.0141 -0.26569,0.0376 -0.43074,0.003 -0.55195,-0.11547 -0.12098,-0.11828 -0.17299,-0.22379 -0.19281,-0.39115 -0.0202,-0.17036 0.0265,-0.31918 0.14093,-0.44954 0.11293,-0.12862 0.2186,-0.17038 0.52671,-0.20817 0.7593,-0.0931 1.54215,0.0173 2.23747,0.31568 0.72595,0.31149 1.2817,0.81608 1.67406,1.51997 l 0.10789,0.19354 0.17161,-0.15064 c 0.28947,-0.25407 0.57377,-0.47857 0.72698,-0.57404 l 0.14606,-0.091 0.0173,-0.37205 c 0.0285,-0.6139 0.14511,-1.14178 0.3693,-1.67255 0.22141,-0.52418 0.42429,-0.8368 0.76336,-1.17625 0.49552,-0.49607 0.97737,-0.59241 1.2319,-0.24631 0.1242,0.1689 0.1574,0.31277 0.11543,0.50029 -0.0374,0.16725 -0.13838,0.28847 -0.38616,0.46371 -0.31441,0.22235 -0.62305,0.74683 -0.78269,1.33003 -0.12086,0.44155 -0.15289,0.72521 -0.14237,1.26085 0.0111,0.5627 0.0187,0.5471 -0.39358,0.80314 -0.49861,0.30966 -0.70352,0.47237 -1.12038,0.88968 l -0.40759,0.40803 -8.5e-4,0.42145 c -0.002,0.73672 -0.0647,0.99412 -0.27856,1.13546 -0.13585,0.0898 -0.37395,0.1159 -0.54641,0.0599 z m -16.47883,10.93145 c 0,-0.004 -0.22846,-0.23257 -0.5077,-0.5077 l -0.50771,-0.50024 0.50025,0.5077 c 0.46477,0.47169 0.51516,0.52062 0.51516,0.50024 z m 1.29077,-0.15701 c 0.0356,-0.0454 0.0346,-0.0464 -0.0108,-0.0108 -0.0275,0.0216 -0.05,0.0441 -0.05,0.0501 0,0.0235 0.0235,0.008 0.0608,-0.0393 z m 0.22883,-0.22882 c 0.0356,-0.0454 0.0346,-0.0464 -0.0108,-0.0108 -0.0275,0.0216 -0.0501,0.0441 -0.0501,0.0501 0,0.0235 0.0235,0.008 0.0609,-0.0393 z m 0.22882,-0.22882 c 0.0356,-0.0454 0.0346,-0.0464 -0.0108,-0.0108 -0.0477,0.0374 -0.0628,0.0609 -0.0393,0.0609 0.006,0 0.0285,-0.0225 0.0501,-0.05 z m -1.32961,-0.41876 0.14708,-0.0464 -0.0314,-0.12137 c -0.0177,-0.0686 -0.0312,-0.37013 -0.031,-0.69343 3.3e-4,-0.55018 0.004,-0.58499 0.0903,-0.91051 0.19711,-0.7415 0.64183,-1.41435 1.27039,-1.92208 l 0.10509,-0.0849 -0.0459,-0.18592 c -0.0665,-0.26931 -0.065,-0.94102 0.003,-1.25755 0.0975,-0.45565 0.29499,-0.93725 0.54412,-1.3267 0.12776,-0.19972 0.16586,-0.24712 0.3867,-0.48111 l 0.1825,-0.19335 -0.0653,-0.16082 c -0.0758,-0.18682 -0.0327,-0.1854 -0.5203,-0.0171 -0.18425,0.0636 -0.4996,0.15063 -0.70077,0.19346 -0.31908,0.0679 -0.43333,0.0782 -0.89493,0.0802 -0.40968,0.002 -0.58323,-0.009 -0.76869,-0.0493 -0.26279,-0.0567 -0.65111,-0.17516 -0.71866,-0.21931 -0.0345,-0.0226 0.0466,-0.11771 0.41536,-0.48685 l 0.45825,-0.45881 0.15346,0.0291 c 0.53796,0.10203 1.42266,-0.0531 2.15108,-0.37715 l 0.18916,-0.0841 0.019,-0.20408 c 0.13247,-1.42527 1.0504,-2.82089 2.48441,-3.77729 0.19273,-0.12854 0.42338,-0.27179 0.51254,-0.31832 0.17362,-0.0906 0.19542,-0.13106 0.19542,-0.36248 0,-0.26801 0.14785,-0.7746 0.34858,-1.19441 0.0481,-0.10064 0.0607,-0.18378 0.0628,-0.41474 0.001,-0.15887 -0.0149,-0.35965 -0.0363,-0.44617 -0.0956,-0.38602 -0.34659,-0.78503 -0.67564,-1.07392 -0.21184,-0.18599 -0.30004,-0.34477 -0.30004,-0.54014 0,-0.26329 0.21325,-0.5274 0.4638,-0.5744 0.40049,-0.0751 1.00641,0.46834 1.40353,1.25888 0.0711,0.14158 0.14512,0.31096 0.16444,0.37639 l 0.0351,0.11897 0.18932,-0.12131 c 0.83424,-0.53458 1.6459,-0.77441 2.73857,-0.80919 l 0.51846,-0.0165 0.0644,-0.16032 c 0.0354,-0.0882 0.11423,-0.25461 0.17515,-0.36988 0.0609,-0.11526 0.11078,-0.21969 0.11078,-0.23206 0,-0.0328 -0.30546,-0.16449 -0.47195,-0.2035 -0.22997,-0.0539 -0.68243,-0.0404 -0.92959,0.0276 -0.11799,0.0325 -0.28334,0.0781 -0.36746,0.10142 -0.35571,0.0985 -0.64372,-0.0936 -0.71962,-0.47983 -0.0492,-0.25049 0.0745,-0.48253 0.32172,-0.60347 0.35805,-0.17515 1.11801,-0.29572 1.53763,-0.24394 0.11799,0.0146 0.23383,0.0279 0.25743,0.0297 0.2317,0.0175 0.51231,0.1174 0.92442,0.32915 l 0.25225,0.12961 0.10069,-0.0805 c 0.6535,-0.52276 1.33981,-0.82812 2.01745,-0.89766 0.33634,-0.0345 0.66822,3.2e-4 0.99934,0.10493 0.19215,0.0607 0.23678,0.0663 0.27712,0.035 0.0265,-0.0205 0.11888,-0.0974 0.2054,-0.17078 0.0865,-0.0734 0.23776,-0.1803 0.33608,-0.2376 0.0983,-0.0573 0.17877,-0.11497 0.17877,-0.12815 0,-0.0641 -0.25366,-0.39159 -0.41845,-0.54033 -0.48121,-0.43429 -1.20603,-0.63859 -2.02652,-0.57118 -0.73762,0.0606 -1.41491,0.39289 -1.57988,0.77511 -0.16344,0.37868 -0.28095,0.49185 -0.54282,0.52273 -0.27825,0.0328 -0.48217,-0.0917 -0.64227,-0.39204 -0.17436,-0.32714 -0.5569,-0.51627 -1.18279,-0.58479 -0.12729,-0.0139 -0.19375,-0.0383 -0.25732,-0.0942 l -0.0857,-0.0754 0.0647,0.0738 0.0647,0.0738 -0.28823,0.0473 c -0.76815,0.1261 -1.2932,0.56996 -1.52798,1.29169 -0.0898,0.27605 -0.12647,0.33496 -0.27601,0.44328 -0.23065,0.16708 -0.47916,0.14268 -0.75625,-0.0743 -0.51165,-0.40059 -1.0328,-0.47098 -1.57566,-0.21281 -0.47245,0.22468 -0.94679,0.801 -1.09195,1.32671 -0.0271,0.0981 -0.0237,0.11054 0.0417,0.15339 0.0906,0.0594 0.21064,0.29441 0.21064,0.41245 0,0.33575 -0.27291,0.62408 -0.59228,0.62575 -0.088,4.3e-4 -0.18511,-0.0335 -0.36116,-0.12639 -0.32868,-0.17335 -0.54316,-0.22603 -0.84853,-0.20842 -0.42278,0.0244 -0.76473,0.18119 -1.09631,0.50271 -0.18835,0.18263 -0.32927,0.38057 -0.42052,0.5907 -0.13827,0.31841 -0.15529,0.41208 -0.15587,0.85808 -5.4e-4,0.40724 0.004,0.44474 0.0954,0.73787 0.0762,0.24517 0.0921,0.33509 0.0769,0.43628 -0.0251,0.16759 -0.16501,0.34823 -0.33898,0.43776 l -0.13695,0.0705 -0.37763,-0.0503 c -0.5832,-0.0778 -0.93482,-0.0106 -1.33149,0.25445 -0.4529,0.30259 -0.74128,0.81455 -0.83882,1.4892 l -0.035,0.24233 -0.0872,-0.0785 -0.0872,-0.0785 0.0894,0.10004 c 0.085,0.0951 0.0902,0.11497 0.10586,0.40038 0.0191,0.34864 0.0843,0.56521 0.30668,1.01823 0.3691,0.75203 0.88777,1.31033 1.4818,1.59501 0.11437,0.0548 0.2715,0.11594 0.34918,0.13585 0.0777,0.0199 0.14123,0.0436 0.14123,0.0526 0,0.009 -0.20467,0.22075 -0.45483,0.47054 l -0.45485,0.45417 -0.22208,-0.1198 c -0.70592,-0.38076 -1.36051,-1.05156 -1.7459,-1.78911 -0.0998,-0.19106 -0.14121,-0.1982 -0.41168,-0.071 -0.44181,0.20771 -0.79815,0.81544 -0.80038,1.36503 -0.001,0.32786 0.34903,1.0013 0.66448,1.27725 0.17343,0.15172 0.42845,0.29296 0.63269,0.35041 0.0807,0.0227 0.37846,0.0523 0.66162,0.0658 0.58802,0.028 0.77234,0.07 1.15842,0.26414 0.35096,0.17646 0.6907,0.51614 0.85196,0.8518 0.0642,0.13368 0.13921,0.32672 0.16663,0.42897 0.0694,0.25882 0.0702,0.84755 0.002,1.17 -0.0737,0.34617 -0.22795,0.73743 -0.33383,0.84667 -0.33672,0.34741 -0.99973,0.0704 -1.00077,-0.41808 -9e-5,-0.0411 0.0466,-0.21483 0.10367,-0.38614 0.20503,-0.61502 0.16011,-1.01567 -0.14775,-1.31774 -0.21516,-0.21111 -0.4083,-0.26783 -0.95719,-0.2811 -0.73815,-0.0179 -1.21339,-0.16882 -1.71186,-0.54381 -0.11456,-0.0862 -0.21198,-0.1567 -0.21648,-0.1567 -0.005,0 -0.0499,0.0906 -0.10101,0.20139 -0.17223,0.37366 -0.14485,0.82824 0.0734,1.21846 0.18577,0.33219 0.54208,0.66496 0.79174,0.73944 0.10481,0.0313 0.13781,0.029 0.25716,-0.0177 0.15568,-0.0609 0.2457,-0.0661 0.40016,-0.0232 0.21814,0.0606 0.41905,0.3178 0.42048,0.53834 3.3e-4,0.0532 -0.0402,0.21408 -0.09,0.35753 -0.076,0.21869 -0.0926,0.31395 -0.10269,0.58975 -0.0156,0.42705 0.033,0.65512 0.22292,1.04599 0.13534,0.27851 0.17343,0.32912 0.47377,0.62946 0.17963,0.17962 0.34258,0.32341 0.36212,0.31952 0.0195,-0.004 0.032,0.01 0.0277,0.0308 -0.004,0.0208 0.004,0.0303 0.0193,0.0211 0.0149,-0.009 0.0699,0.008 0.12227,0.0388 0.1376,0.0804 0.38282,0.17234 0.58092,0.21779 0.22479,0.0516 0.77717,0.0366 0.97705,-0.0265 z m 0.13043,-10.31427 c -0.22153,-0.0942 -0.37762,-0.33505 -0.37762,-0.58281 0,-0.27785 0.0992,-0.39435 0.51485,-0.60449 0.87381,-0.44179 1.42583,-1.09175 1.6156,-1.90223 0.0669,-0.28562 0.0671,-0.79961 5.3e-4,-1.08386 -0.0524,-0.22355 -0.0818,-0.3037 -0.22184,-0.60343 -0.12437,-0.26621 -0.1305,-0.38001 -0.0307,-0.56985 0.11484,-0.21849 0.29914,-0.3308 0.54317,-0.331 0.14985,-10e-5 0.1946,0.0127 0.29826,0.0857 0.21224,0.14933 0.44987,0.66819 0.57311,1.25137 0.0874,0.41352 0.0875,1.00872 2.1e-4,1.41754 -0.26049,1.22088 -1.05657,2.20123 -2.26355,2.78751 -0.31161,0.15136 -0.5153,0.19372 -0.65207,0.13559 z m -1.57895,10.31557 c 0,-0.005 -0.029,-0.0344 -0.0643,-0.0644 l -0.0644,-0.0545 0.0545,0.0644 c 0.0512,0.0605 0.0742,0.0774 0.0742,0.0545 z m -1.25852,-1.25688 c 0,-0.005 -0.0676,-0.0721 -0.15016,-0.15016 l -0.15017,-0.14194 0.14194,0.15016 c 0.13189,0.13954 0.15839,0.16328 0.15839,0.14194 z m 0.14301,-4.69693 c 0.19618,-0.19664 0.35024,-0.35753 0.34238,-0.35753 -0.008,0 -0.17481,0.16089 -0.37098,0.35753 -0.19617,0.19664 -0.35024,0.35754 -0.34237,0.35754 0.008,0 0.1748,-0.1609 0.37097,-0.35754 z m 5.54895,-0.0251 c 0,-0.006 -0.0225,-0.0285 -0.0501,-0.0501 -0.0454,-0.0356 -0.0464,-0.0346 -0.0108,0.0108 0.0374,0.0476 0.0609,0.0628 0.0609,0.0393 z m 4.92332,-0.23947 c 0.0356,-0.0454 0.0346,-0.0464 -0.0108,-0.0108 -0.0275,0.0216 -0.0501,0.0441 -0.0501,0.0501 0,0.0235 0.0235,0.008 0.0608,-0.0393 z m 0.22883,-0.22883 c 0.0356,-0.0454 0.0346,-0.0464 -0.0108,-0.0108 -0.0275,0.0216 -0.05,0.0441 -0.05,0.0501 0,0.0235 0.0235,0.008 0.0609,-0.0393 z m 0.22882,-0.22882 c 0.0356,-0.0454 0.0346,-0.0464 -0.0108,-0.0108 -0.0275,0.0216 -0.05,0.0441 -0.05,0.0501 0,0.0235 0.0235,0.008 0.0608,-0.0393 z m 0.22882,-0.22882 c 0.0356,-0.0454 0.0346,-0.0464 -0.0108,-0.0108 -0.0275,0.0216 -0.05,0.0441 -0.05,0.0501 0,0.0235 0.0235,0.008 0.0609,-0.0393 z m 0.22882,-0.22882 c 0.0356,-0.0454 0.0346,-0.0464 -0.0108,-0.0108 -0.0275,0.0216 -0.05,0.0441 -0.05,0.0501 0,0.0235 0.0235,0.008 0.0608,-0.0393 z m 0.22882,-0.22883 c 0.0356,-0.0454 0.0346,-0.0464 -0.0108,-0.0108 -0.0275,0.0216 -0.0501,0.0441 -0.0501,0.0501 0,0.0235 0.0235,0.008 0.0609,-0.0393 z m -7.44036,0.0106 c 0,-0.006 -0.0225,-0.0285 -0.0501,-0.0501 -0.0454,-0.0356 -0.0464,-0.0346 -0.0108,0.0108 0.0374,0.0476 0.0609,0.0628 0.0609,0.0393 z m 7.66919,-0.23947 c 0.0356,-0.0454 0.0346,-0.0464 -0.0108,-0.0108 -0.0275,0.0216 -0.0501,0.0441 -0.0501,0.0501 0,0.0235 0.0235,0.008 0.0609,-0.0393 z m 0.22882,-0.22882 c 0.0356,-0.0454 0.0346,-0.0464 -0.0108,-0.0108 -0.0275,0.0216 -0.05,0.0441 -0.05,0.0501 0,0.0235 0.0235,0.008 0.0609,-0.0393 z m 0.22882,-0.22883 c 0.0356,-0.0454 0.0346,-0.0464 -0.0108,-0.0108 -0.0275,0.0216 -0.05,0.0441 -0.05,0.05 0,0.0235 0.0235,0.008 0.0608,-0.0393 z m -8.89911,-0.0752 c 0,-0.006 -0.0225,-0.0285 -0.05,-0.0501 -0.0454,-0.0356 -0.0464,-0.0346 -0.0108,0.0108 0.0374,0.0476 0.0608,0.0628 0.0608,0.0393 z m 9.12793,-0.15366 c 0.0356,-0.0454 0.0346,-0.0464 -0.0108,-0.0108 -0.0275,0.0216 -0.05,0.0441 -0.05,0.05 0,0.0235 0.0235,0.008 0.0609,-0.0393 z m 0.22882,-0.22882 c 0.0356,-0.0454 0.0346,-0.0464 -0.0108,-0.0108 -0.0275,0.0216 -0.0501,0.0441 -0.0501,0.0501 0,0.0235 0.0235,0.008 0.0608,-0.0393 z m 0.22883,-0.22882 c 0.0356,-0.0454 0.0346,-0.0464 -0.0108,-0.0108 -0.0275,0.0216 -0.05,0.0441 -0.05,0.0501 0,0.0235 0.0235,0.008 0.0609,-0.0393 z m 0.23825,-0.234 c 0.009,-0.0146 0.005,-0.0334 -0.008,-0.0416 -0.0134,-0.008 -0.0243,0.004 -0.0243,0.0266 0,0.0482 0.009,0.0524 0.0322,0.015 z m 9.42584,-0.87086 c 0,-0.006 -0.0225,-0.0285 -0.05,-0.0501 -0.0454,-0.0356 -0.0464,-0.0346 -0.0108,0.0108 0.0374,0.0476 0.0609,0.0628 0.0609,0.0393 z m -0.22882,-0.22882 c 0,-0.006 -0.0225,-0.0285 -0.0501,-0.0501 -0.0454,-0.0356 -0.0464,-0.0346 -0.0108,0.0108 0.0374,0.0477 0.0609,0.0628 0.0609,0.0393 z m -0.22882,-0.22882 c 0,-0.006 -0.0225,-0.0285 -0.0501,-0.0501 -0.0454,-0.0356 -0.0464,-0.0346 -0.0108,0.0108 0.0374,0.0477 0.0609,0.0628 0.0609,0.0393 z m 3.6362,-0.63991 c 0.0356,-0.0454 0.0346,-0.0464 -0.0108,-0.0108 -0.0275,0.0216 -0.0501,0.0441 -0.0501,0.05 0,0.0235 0.0235,0.008 0.0609,-0.0393 z m 0.22882,-0.22883 c 0.0356,-0.0454 0.0346,-0.0464 -0.0108,-0.0108 -0.0476,0.0374 -0.0628,0.0608 -0.0393,0.0608 0.006,0 0.0285,-0.0225 0.0501,-0.05 z m 0.22882,-0.22882 c 0.0356,-0.0454 0.0346,-0.0464 -0.0108,-0.0108 -0.0275,0.0216 -0.0501,0.0441 -0.0501,0.05 0,0.0235 0.0235,0.008 0.0609,-0.0393 z m 0.25378,-5.30946 c 0,-0.006 -0.0225,-0.0285 -0.05,-0.05 -0.0454,-0.0356 -0.0464,-0.0346 -0.0108,0.0108 0.0374,0.0477 0.0609,0.0628 0.0609,0.0393 z m -0.22882,-0.22882 c 0,-0.006 -0.0225,-0.0285 -0.0501,-0.0501 -0.0454,-0.0356 -0.0464,-0.0346 -0.0108,0.0108 0.0374,0.0476 0.0609,0.0628 0.0609,0.0393 z m -21.19466,-0.11441 c 0,-0.006 -0.0225,-0.0285 -0.0501,-0.0501 -0.0454,-0.0356 -0.0464,-0.0346 -0.0108,0.0108 0.0374,0.0476 0.0608,0.0628 0.0608,0.0393 z m -0.11441,-0.11111 c 0,-0.004 -0.20272,-0.20684 -0.4505,-0.45049 l -0.45049,-0.443 0.443,0.4505 c 0.41154,0.41851 0.45799,0.46343 0.45799,0.44299 z m 21.08024,-0.003 c 0,-0.006 -0.0225,-0.0285 -0.0501,-0.0501 -0.0454,-0.0356 -0.0464,-0.0346 -0.0108,0.0108 0.0374,0.0477 0.0609,0.0628 0.0609,0.0393 z m -0.40043,-0.39859 c 0,-0.005 -0.0418,-0.0468 -0.093,-0.093 l -0.093,-0.084 0.084,0.093 c 0.0783,0.0866 0.10191,0.10611 0.10191,0.084 z m -11.01208,-0.20207 c 0,-0.006 -0.0225,-0.0285 -0.0501,-0.0501 -0.0454,-0.0356 -0.0464,-0.0346 -0.0108,0.0108 0.0374,0.0476 0.0609,0.0628 0.0609,0.0393 z m -0.22882,-0.22883 c 0,-0.006 -0.0225,-0.0285 -0.0501,-0.05 -0.0454,-0.0356 -0.0464,-0.0346 -0.0108,0.0108 0.0374,0.0476 0.0608,0.0628 0.0608,0.0393 z m 10.72605,-0.0858 c 0,-0.006 -0.0225,-0.0285 -0.0501,-0.0501 -0.0454,-0.0356 -0.0464,-0.0346 -0.0108,0.0108 0.0374,0.0477 0.0609,0.0628 0.0609,0.0393 z m -10.95487,-0.14301 c 0,-0.006 -0.0225,-0.0285 -0.0501,-0.0501 -0.0454,-0.0356 -0.0464,-0.0346 -0.0108,0.0108 0.0374,0.0476 0.0609,0.0628 0.0609,0.0393 z m 10.72604,-0.0858 c 0,-0.006 -0.0225,-0.0285 -0.0501,-0.0501 -0.0454,-0.0356 -0.0464,-0.0346 -0.0108,0.0108 0.0374,0.0476 0.0609,0.0628 0.0609,0.0393 z m -11.01207,-0.19929 c 0,-0.005 -0.029,-0.0344 -0.0644,-0.0644 l -0.0644,-0.0545 0.0545,0.0644 c 0.0512,0.0605 0.0742,0.0774 0.0742,0.0545 z m 10.78325,-0.0295 c 0,-0.006 -0.0225,-0.0285 -0.0501,-0.0501 -0.0454,-0.0356 -0.0464,-0.0346 -0.0108,0.0108 0.0374,0.0477 0.0609,0.0628 0.0609,0.0393 z m -10.95487,-0.14301 c 0,-0.006 -0.0225,-0.0285 -0.0501,-0.0501 -0.0454,-0.0356 -0.0464,-0.0346 -0.0108,0.0108 0.0374,0.0477 0.0609,0.0628 0.0609,0.0393 z m 9.35677,-0.12506 c 0.0356,-0.0454 0.0346,-0.0464 -0.0108,-0.0108 -0.0275,0.0216 -0.0501,0.0441 -0.0501,0.0501 0,0.0235 0.0235,0.008 0.0609,-0.0393 z m 1.36928,0.0393 c 0,-0.006 -0.0225,-0.0285 -0.05,-0.0501 -0.0454,-0.0356 -0.0464,-0.0346 -0.0108,0.0108 0.0374,0.0476 0.0609,0.0628 0.0609,0.0393 z m -1.14046,-0.26809 c 0.0356,-0.0454 0.0346,-0.0464 -0.0108,-0.0108 -0.0275,0.0216 -0.05,0.0441 -0.05,0.0501 0,0.0235 0.0235,0.008 0.0609,-0.0393 z m 0.91164,0.0393 c 0,-0.006 -0.0225,-0.0285 -0.0501,-0.0501 -0.0454,-0.0356 -0.0464,-0.0346 -0.0108,0.0108 0.0374,0.0476 0.0609,0.0628 0.0609,0.0393 z m -12.78545,-1.97393 c 0,-0.006 -0.0225,-0.0285 -0.0501,-0.0501 -0.0454,-0.0356 -0.0464,-0.0346 -0.0108,0.0108 0.0374,0.0476 0.0609,0.0628 0.0609,0.0393 z m 3.6076,-0.12506 c 0.0356,-0.0454 0.0346,-0.0464 -0.0108,-0.0108 -0.0476,0.0374 -0.0628,0.0608 -0.0393,0.0608 0.006,0 0.0285,-0.0225 0.0501,-0.05 z m -3.83642,-0.10376 c 0,-0.006 -0.0225,-0.0285 -0.0501,-0.0501 -0.0454,-0.0356 -0.0464,-0.0346 -0.0108,0.0108 0.0374,0.0477 0.0608,0.0628 0.0608,0.0393 z m -0.22882,-0.22882 c 0,-0.006 -0.0225,-0.0285 -0.0501,-0.0501 -0.0454,-0.0356 -0.0464,-0.0346 -0.0108,0.0108 0.0374,0.0477 0.0608,0.0628 0.0608,0.0393 z"
       id="path4"
       inkscape:connector-curvature="0" />
  </g>
</svg>
